<svg xmlns="http://www.w3.org/2000/svg" width="75" height="22" viewBox="0 0 75 22">
    <g fill="#000" fill-rule="evenodd">
        <path d="M74.339 20.789c-1.056.17-2.343.48-6.27.48-4.289 0-7.621-1.2-7.621-7.028l.002-7.213C60.45 1.2 63.782 0 68.07 0c3.927 0 5.213.308 6.27.48.494.068.659.24.659.72v2.194a.675.675 0 0 1-.66.685h-6.73c-1.914 0-2.607.686-2.607 2.949v1.37h8.942c.362 0 .66.309.66.686v2.468a.675.675 0 0 1-.66.686h-8.942L65 14.24c0 2.262.693 2.948 2.607 2.948h6.73c.364 0 .66.309.66.686v2.193c0 .48-.164.652-.66.72M34.701 1.773l-3.085 18.842c-.064.344-.317.654-.633.654h-.316c-.285 0-.443-.241-.443-.516v-.138L33.31 1.773c.063-.344.316-.654.632-.654h.317c.284 0 .442.241.442.516v.138zM26.866 1.697l-2.777 16.819c-.306 2.14-1.291 2.753-3.06 2.753h-1.834c-1.53 0-2.345-.748-2.821-2.72l-2.686-8.454c-.068-.306-.068-.374-.203-.374-.136 0-.17.068-.238.374l-2.685 8.455c-.476 1.971-1.292 2.719-2.821 2.719H5.905c-1.767 0-2.753-.612-3.058-2.753L0 1.697v-.102c0-.306.272-.476.578-.476H4.18c.272 0 .544.238.577.612l2.099 14.916c.034.305.034.51.17.51s.136-.205.204-.51l2.923-9.169c.204-.815.68-1.529 2.14-1.529h2.346c1.462 0 1.938.714 2.142 1.53l2.923 9.168c.068.305.068.51.204.51.135 0 .135-.205.17-.51L22.106 1.73c.034-.374.306-.612.578-.612h3.603c.306 0 .578.17.578.476v.102zM55.504 1.12h-.4c-.333 0-.566.309-.633.653l-3.02 17.777c-.033.137-.2.275-.233.275-.006 0-.009-.003-.014-.004-.01 0-.016-.006-.025-.008-.097-.02-.131-.11-.16-.23l-5.44-17.397c-.199-.585-.632-1.067-1.497-1.067-.045 0-.09.002-.135.006v-.006l-.064.007V1.12c-.662.073-1.422.519-1.634 1.674l-3.07 17.822v.138c0 .275.167.515.466.515h.333c.333 0 .6-.31.666-.653l3.071-17.822c.028-.147.105-.216.168-.233v.007c.01-.003.022-.008.032-.008.01 0 .021.005.032.006v.005a.321.321 0 0 1 .268.235l5.438 17.363c.266.858.697 1.1 1.526 1.1h.025c.825-.01 1.548-.626 1.746-1.718l3.02-17.777v-.138c0-.274-.133-.516-.466-.516"/>
    </g>
</svg>
